# xmcd CD database file
#
# Track frame offsets:
#	150
#	11820
#	23158
#	34748
#	44950
#	59797
#	71494
#	88605
#	101609
#	119030
#
# Disc length: 1704 seconds
#
# Revision: 0
# Processed by: cddbd v1.4PL0 Copyright (c) Steve Scherf et al.
# Submitted via: CDex 1.51
#
DISCID=9306a60a
DTITLE=Various Artist - E-Funds New Orleans
DYEAR=2003
DGENRE=Blues
TTITLE0=Saints Go Marching In
TTITLE1=Texas Tornado
TTITLE2=South Rampart Street Parade
TTITLE3=Alligator Blues
TTITLE4=High Society
TTITLE5=Bayou Squeeze Box
TTITLE6=Washington and Lee Swing
TTITLE7=Delta Blues
TTITLE8=Dixieland Blues
TTITLE9=Bon Temp Rouler
EXTD=YEAR: 2003
EXTT0=
EXTT1=
EXTT2=
EXTT3=
EXTT4=
EXTT5=
EXTT6=
EXTT7=
EXTT8=
EXTT9=
PLAYORDER=
